<svg width="174" height="48" viewBox="0 0 174 48" fill="none" xmlns="http://www.w3.org/2000/svg">
<g clip-path="url(#clip0_158_652)">
<path d="M139.634 48C139.067 47.9211 138.5 47.8517 137.936 47.757C136.197 47.4697 134.533 46.9488 132.917 46.1185C133.38 45.0042 133.838 43.9056 134.289 42.826C135.147 43.1353 135.965 43.4731 136.811 43.7225C139.004 44.3665 141.22 44.5243 143.435 43.8425C145.851 43.0974 147.298 41.2696 147.445 38.6999C147.518 37.4561 147.458 36.206 147.458 34.9496C147.424 34.978 147.361 35.0127 147.326 35.0664C145.913 37.3267 143.814 38.3085 141.229 38.3906C138.56 38.4726 136.181 37.7276 134.223 35.843C132.656 34.3309 131.716 32.4494 131.265 30.3343C130.604 27.2532 130.701 24.1973 131.992 21.2867C133.565 17.7384 136.332 15.8885 140.195 15.7275C141.821 15.6612 143.391 15.8853 144.87 16.6019C145.951 17.126 146.863 17.8584 147.521 18.8844C147.546 18.9222 147.583 18.9538 147.668 19.0485C147.668 18.5655 147.668 18.1456 147.668 17.7289C147.668 17.3249 147.655 16.9208 147.68 16.5167C147.687 16.422 147.815 16.2547 147.887 16.2547C149.15 16.2389 150.416 16.2421 151.716 16.2421C151.722 16.4062 151.735 16.542 151.735 16.6746C151.735 23.6828 151.735 30.691 151.735 37.6992C151.735 39.7417 151.356 41.6895 150.244 43.4352C148.89 45.5629 146.903 46.8099 144.525 47.4444C143.623 47.6843 142.683 47.7696 141.759 47.9274C141.652 47.9464 141.546 47.9779 141.439 48.0032H139.634V48ZM147.633 26.9596C147.527 26.0473 147.48 25.1255 147.304 24.2258C146.941 22.3569 146.073 20.8163 144.268 19.9861C143.269 19.5252 142.207 19.4021 141.119 19.4115C138.663 19.4368 136.758 20.7185 135.852 23.023C135.063 25.0308 135 27.1111 135.433 29.1978C136.141 32.6135 138.503 34.8107 141.947 34.6718C144.159 34.5834 145.785 33.5795 146.734 31.537C147.405 30.088 147.574 28.5412 147.64 26.9533L147.633 26.9596Z" fill="#016836"/>
<path d="M174 38.6778H170.055V34.7696C169.977 34.8833 169.917 34.9559 169.873 35.0348C168.279 38.0275 165.29 39.4891 161.968 39.1482C160.809 39.0282 159.703 38.7283 158.685 38.1538C156.632 36.9889 155.482 35.2337 155.335 32.8471C155.182 30.4005 156.046 28.4306 158.061 27.0101C158.92 26.4039 159.869 25.9809 160.862 25.6589C162.567 25.1065 164.321 24.8413 166.101 24.7466C167.176 24.6898 168.254 24.674 169.331 24.6708C169.654 24.6708 169.736 24.5635 169.723 24.2573C169.685 23.3039 169.591 22.3663 169.15 21.5045C168.354 19.9576 166.963 19.4368 165.355 19.3421C163.04 19.2063 160.972 19.964 159.045 21.192C158.907 21.2804 158.775 21.3719 158.606 21.4856C158.02 20.4406 157.447 19.4147 156.827 18.3098C157.478 17.9309 158.092 17.5205 158.75 17.2017C161.711 15.7653 164.81 15.295 168.031 16.0305C171.274 16.7724 173.138 18.8875 173.756 22.1485C173.868 22.7515 173.919 23.3639 174 23.9732V38.6746V38.6778ZM169.751 27.9382C169.654 27.9129 169.62 27.894 169.585 27.894C167.881 27.875 166.176 27.875 164.491 28.1497C163.337 28.3359 162.21 28.6232 161.21 29.2735C159.017 30.7067 159.067 33.8415 161.348 35.1263C163.074 36.0986 164.879 36.0292 166.511 34.9211C168.946 33.2733 169.798 30.8141 169.751 27.935V27.9382Z" fill="#016836"/>
<path d="M1.16368e-05 12.0749C1.16368e-05 10.4839 -0.00312164 8.96857 0.0125447 7.45644C0.0125447 7.37436 0.153542 7.26703 0.253807 7.21967C0.335272 7.17864 0.451203 7.2102 0.551467 7.2102C4.93805 7.2102 9.3215 7.20073 13.7081 7.21336C15.776 7.21967 17.7719 7.60481 19.5642 8.70655C22.099 10.2629 23.2207 12.599 23.1392 15.5411C23.0609 18.3223 21.936 20.5227 19.5046 21.9653C19.4639 21.9906 19.4294 22.0253 19.3668 22.0822C19.4451 22.1295 19.5015 22.1737 19.561 22.1958C22.0739 23.0829 23.5779 24.9012 24.1356 27.4678C24.7153 30.129 24.3831 32.6734 22.7225 34.9148C21.4629 36.6132 19.702 37.5602 17.7155 38.1285C16.4309 38.4946 15.1149 38.6525 13.7864 38.6588C11.1169 38.6746 8.44731 38.6683 5.7809 38.6588C5.40804 38.6588 5.02891 38.6083 4.66859 38.5231C3.66594 38.2895 3.08942 37.6455 2.94529 36.6226C2.89515 36.2754 2.86696 35.9187 2.86696 35.5682C2.86382 27.916 2.86382 20.2638 2.86382 12.6147C2.86382 12.2612 2.68627 12.0833 2.33117 12.0812C1.56978 12.0812 0.811529 12.0812 0.00627818 12.0812L1.16368e-05 12.0749ZM8.58204 24.636C8.58204 25.1443 8.58204 25.6178 8.58204 26.0945C8.58204 28.2791 8.57891 30.4604 8.58204 32.645C8.58204 33.4626 8.89537 33.7657 9.70062 33.7657C11.2171 33.7657 12.7305 33.7783 14.247 33.7625C15.1932 33.7499 16.0894 33.5131 16.8382 32.907C18.3735 31.6569 18.7056 29.968 18.3704 28.1307C17.9662 25.9304 16.3839 24.6613 14.1561 24.6424C12.5895 24.6297 11.026 24.6424 9.45936 24.6424C9.18676 24.6424 8.91104 24.6424 8.57891 24.6424L8.58204 24.636ZM8.60398 20.0397C10.4557 20.0397 12.2574 20.0681 14.059 20.0207C14.5133 20.0081 14.9959 19.8218 15.4063 19.604C16.7066 18.9158 17.2267 17.7288 17.327 16.3114C17.5056 13.7607 15.9484 12.0781 13.4167 12.0749C11.9628 12.0749 10.5121 12.0907 9.0583 12.0654C8.66978 12.0591 8.57578 12.1823 8.57578 12.5548C8.59144 14.9003 8.58204 17.249 8.58518 19.5946C8.58518 19.7303 8.59771 19.8692 8.60711 20.0365L8.60398 20.0397Z" fill="#EF7521"/>
<path d="M52.8301 15.5349C56.4334 15.5759 59.4476 16.6051 61.9197 18.998C63.8404 20.8574 64.9433 23.1429 65.2567 25.8073C65.5825 28.5601 65.1345 31.1645 63.6775 33.5416C61.9793 36.3165 59.4852 38.018 56.377 38.7788C53.1278 39.5744 49.9506 39.2997 46.9678 37.715C43.4585 35.8493 41.3999 32.9039 40.908 28.9231C40.4725 25.3906 41.331 22.2053 43.7248 19.5315C45.7646 17.2522 48.3558 16.0242 51.3606 15.6517C51.9183 15.5822 52.4823 15.5601 52.827 15.5317L52.8301 15.5349ZM53.0776 20.2891C50.8843 20.2891 48.8759 21.3277 47.6477 23.1555C46.4038 25.0055 46.0936 27.0511 46.6106 29.1946C47.2497 31.8432 48.8791 33.6237 51.5423 34.2424C54.1649 34.8517 56.4459 34.1067 58.1849 32.0137C59.6481 30.2522 60.0084 28.1655 59.6418 25.9304C59.1092 22.6725 56.3456 20.2954 53.0776 20.2923V20.2891Z" fill="#EF7521"/>
<path d="M113.127 28.0612H96.8526C96.9591 28.7273 97.0155 29.3524 97.1628 29.9554C97.9304 33.0743 100.481 35.1894 103.671 35.4451C106.381 35.6661 108.712 34.7664 110.827 33.1501C110.927 33.0743 111.021 32.9954 111.162 32.8818C111.748 33.9267 112.322 34.9495 112.911 36.0007C112.807 36.0954 112.713 36.1965 112.604 36.2754C108.427 39.3975 103.89 40.1457 99.0803 38.0874C95.5178 36.5627 93.4592 33.6741 92.7323 29.8638C92.2059 27.1047 92.4816 24.3961 93.6817 21.8422C95.2609 18.4865 97.9304 16.5229 101.546 15.8852C103.63 15.5191 105.698 15.6264 107.669 16.4787C110.583 17.7383 112.187 20.0807 112.92 23.105C113.312 24.7181 113.334 26.3534 113.127 28.0612ZM97.0312 24.816H108.925C108.887 24.4277 108.872 24.0647 108.812 23.7111C108.471 21.7602 107.537 20.2449 105.641 19.4872C103.285 18.5433 100.262 19.3231 98.6166 21.2645C97.7581 22.2779 97.2662 23.4585 97.0343 24.8128L97.0312 24.816Z" fill="#016836"/>
<path d="M73.0742 38.6463H68.8474V16.2705C68.9633 16.2579 69.073 16.2389 69.1795 16.2389C70.3075 16.2389 71.4355 16.2452 72.5634 16.2326C72.8548 16.2295 72.952 16.3147 72.9488 16.6177C72.9332 18.0036 72.9426 19.3895 72.9426 20.7911C72.9833 20.7343 73.0397 20.668 73.0804 20.5954C74.7912 17.508 77.4075 15.898 80.9042 15.7307C82.0103 15.677 83.1069 15.7654 84.1785 16.0716C86.6788 16.7851 88.0825 18.5308 88.6121 21.0121C88.8251 22.0033 88.9379 23.0356 88.9442 24.049C88.9787 28.7716 88.9599 33.4943 88.9599 38.217V38.6494H84.7519C84.7425 38.4884 84.7268 38.318 84.7268 38.1475C84.7268 33.8416 84.7425 29.5356 84.7111 25.2297C84.7049 24.3268 84.614 23.4113 84.4229 22.5305C84.0312 20.7343 82.8061 19.7683 80.9825 19.6578C76.9469 19.4147 73.8481 22.2843 73.2308 26.0852C73.1149 26.7923 73.0836 27.5152 73.0804 28.2318C73.0648 31.5276 73.0742 34.8233 73.0742 38.1191V38.6526V38.6463Z" fill="#016836"/>
<path d="M35.5501 25.7031C35.5501 28.0392 35.5501 30.3753 35.5501 32.7114C35.5501 33.63 35.8477 33.9362 36.7595 33.9552C37.148 33.9646 37.5366 33.9646 37.9251 33.9552C38.1758 33.9489 38.2886 34.0341 38.2854 34.3024C38.276 35.6536 38.2792 37.0047 38.2854 38.3558C38.2854 38.5768 38.2165 38.6652 37.9815 38.6652C36.2269 38.6557 34.4722 38.6652 32.7176 38.6557C32.4575 38.6557 32.1912 38.6115 31.9374 38.5547C30.7687 38.299 30.1295 37.5035 30.0857 36.2281C30.0575 35.4326 30.07 34.637 30.07 33.8415C30.07 29.927 30.07 26.0125 30.07 22.098C30.07 21.9212 30.0637 21.7444 30.0324 21.5708C29.9447 21.1068 29.7159 20.8795 29.2522 20.8479C28.7415 20.8132 28.2245 20.8163 27.7138 20.8226C27.4443 20.8258 27.3346 20.7343 27.3378 20.4501C27.3472 19.1116 27.344 17.7731 27.3378 16.4346C27.3378 16.1852 27.4098 16.0653 27.6793 16.0684C29.5091 16.0842 31.339 16.0589 33.1657 16.1126C34.6508 16.1568 35.5156 17.0502 35.5375 18.5434C35.5689 20.93 35.5469 23.3166 35.5469 25.7031H35.5595H35.5501Z" fill="#EF7521"/>
<path d="M121.405 38.6526H117.184V16.261H121.233V21.7476L121.28 21.7697C121.336 21.6245 121.392 21.4825 121.449 21.3372C122.191 19.3611 123.369 17.7416 125.256 16.7314C126.471 16.0811 127.775 15.838 129.144 16.0337C129.241 16.0464 129.404 16.1726 129.404 16.2484C129.42 17.5711 129.417 18.8938 129.417 20.2481C129.291 20.2481 129.207 20.2576 129.125 20.2481C126.409 19.8882 124.413 21.0531 122.94 23.2629C122.057 24.5888 121.605 26.0946 121.511 27.6762C121.411 29.3115 121.424 30.9562 121.408 32.5946C121.392 34.4635 121.405 36.3323 121.405 38.2012V38.6526Z" fill="#016836"/>
<path d="M33.7015 -1.69722e-05C34.1997 0.249375 34.7198 0.464041 35.1961 0.751315C37.1324 1.91935 38.4421 3.57039 38.7743 5.85595C39.1784 8.65924 38.1633 10.9069 35.9167 12.5769C34.5945 13.5618 33.0654 14.0196 31.4455 14.1837C31.0351 14.2248 30.6246 14.2437 30.0951 14.2816C30.1828 13.6376 30.2204 13.041 30.3458 12.4633C30.6465 11.0742 31.3766 9.90304 32.2445 8.81077C32.9025 7.98367 33.5856 7.17552 34.2091 6.32317C35.3057 4.82366 35.3653 3.22629 34.5255 1.58788C34.2623 1.07331 33.9584 0.580845 33.6702 0.0789044L33.6984 -0.00317383L33.7015 -1.69722e-05Z" fill="#016836"/>
</g>
<defs>
<clipPath id="clip0_158_652">
<rect width="174" height="48" fill="white"/>
</clipPath>
</defs>
</svg>
