<?xml version="1.0" encoding="utf-8"?>
<!-- Generator: Adobe Illustrator 22.1.0, SVG Export Plug-In . SVG Version: 6.00 Build 0)  -->
<svg version="1.1" xmlns="http://www.w3.org/2000/svg" xmlns:xlink="http://www.w3.org/1999/xlink" x="0px" y="0px"
	 viewBox="0 0 595.3 841.9" style="enable-background:new 0 0 595.3 841.9;" xml:space="preserve">
<style type="text/css">
	.st0{fill:#3999C7;}
	.st1{fill:#3DA8DC;}
	.st2{fill:#FCFCFC;}
	.st3{fill:#F9AA2D;}
	.st4{fill:#F8F8F8;}
	.st5{fill:none;stroke:#D0F72F;stroke-width:4;stroke-miterlimit:10;}
	.st6{fill:#555E6A;}
	.st7{font-family:'Arial-Black';}
	.st8{font-size:49.0682px;}
</style>
<g id="Layer_1">
	
		<image style="display:none;overflow:visible;" width="512" height="512" xlink:href="../../../../../../student.png"  transform="matrix(1 0 0 1 42 164.8898)">
	</image>
	<path class="st0" d="M505.3,653.4H90.8c-25.8,0-46.8-20.9-46.8-46.8v-257c0-25.8,20.9-46.8,46.8-46.8h414.5
		c25.8,0,46.8,20.9,46.8,46.8v257C552,632.5,531.1,653.4,505.3,653.4z"/>
	<path class="st1" d="M505.3,646.4H90.8c-25.8,0-46.8-20.9-46.8-46.8v-248c0-25.8,20.9-46.8,46.8-46.8h414.5
		c25.8,0,46.8,20.9,46.8,46.8v248C552,625.5,531.1,646.4,505.3,646.4z"/>
	<path class="st2" d="M370.3,354.4H222.8c-4.6,0-8.3-3.7-8.3-8.3v-11.5c0-4.6,3.7-8.3,8.3-8.3h147.5c4.6,0,8.3,3.7,8.3,8.3v11.5
		C378.5,350.7,374.8,354.4,370.3,354.4z"/>
	<path class="st3" d="M296.1,345.9L296.1,345.9c-14.8,0-26.8-12-26.8-26.7V213.6c0-14.8,12-26.7,26.7-26.7h0
		c14.8,0,26.7,12,26.7,26.7v105.5C322.9,333.9,310.9,345.9,296.1,345.9z"/>
	<circle class="st4" cx="296.1" cy="223" r="15.6"/>
	<path class="st5" d="M233.3,596.2l-107.9-59c-12-10.5-15.4-21.8-4.2-34.6L229.4,443c14-3.1,25.5,1.9,34.6,15.1l-2.5,121.8
		C255.3,592,245.3,596.3,233.3,596.2z"/>
	<g>
		<text transform="matrix(0.9624 0 0 1 288.4912 501.7325)"><tspan x="0" y="0" class="st6 st7 st8">Delta</tspan><tspan x="0" y="58.9" class="st6 st7 st8">Technics</tspan></text>
	</g>
</g>
<g id="Layer_3">
</g>
<g id="Layer_4">
</g>
<g id="Layer_2">
</g>
</svg>
